<?xml version="1.0" encoding="UTF-8" standalone="no"?> <svg id="Layer_1" data-name="Layer 1" xmlns="http://www.w3.org/2000/svg" viewBox="0 0 48 48"><defs><style>.cls-1{fill:#6ee7ff;}.cls-2{fill:#47caf0;}.cls-3{fill:#ffc343;}.cls-4{fill:#f6a28d;}.cls-5{fill:none;}.cls-6{fill:#0d3b8d;}.cls-7{fill:#1761b2;}.cls-8{fill:#ffcdb4;}.cls-9{fill:#ffa221;}.cls-10{fill:#08105e;}</style></defs><circle class="cls-1" cx="24" cy="24" r="18"/><path class="cls-2" d="M40.814,17.618a17,17,0,1,1-33.628,0,18,18,0,1,0,33.628,0Z"/><path class="cls-3" d="M29,30H19a6,6,0,0,0-6,6v2.226a17.918,17.918,0,0,0,22,0V36A6,6,0,0,0,29,30Z"/><path class="cls-4" d="M27,25v6a3,3,0,0,1-3,3h0a3,3,0,0,1-3-3V25Z"/><path class="cls-5" d="M21,16.925c-2-2-.919-5-.919-5h6.174a4.912,4.912,0,0,1,4.386,6.789l-.5,1.257"/><path class="cls-5" d="M18.131,19.971,17.46,18.63c-1.341-2.682.495-4.694,2.347-5.364"/><path class="cls-6" d="M19.807,13.341c-1.852.67-3.688,2.682-2.347,5.364l.671,1.341H30.139l.5-1.256A4.913,4.913,0,0,0,26.255,12H20.081Z"/><path class="cls-7" d="M19.807,15.341,20.081,14h6.174a4.785,4.785,0,0,1,4.637,3.92A4.882,4.882,0,0,0,26.255,12H20.081l-.274,1.341a3.8,3.8,0,0,0-2.651,4.577A4.288,4.288,0,0,1,19.807,15.341Z"/><path class="cls-8" d="M29,20h-.025A3.11,3.11,0,0,0,26,17H22a3.11,3.11,0,0,0-2.975,3H19a2,2,0,0,0,0,4h.021A5.2,5.2,0,0,0,24,29a5.2,5.2,0,0,0,4.979-5H29a2,2,0,0,0,0-4Z"/><path class="cls-4" d="M26,27a5,5,0,0,1-5-5V18a2.96,2.96,0,0,1,.136-.846A3.211,3.211,0,0,0,19.025,20H19a2,2,0,0,0,0,4h.021A5.2,5.2,0,0,0,24,29a4.892,4.892,0,0,0,4.192-2.526A4.954,4.954,0,0,1,26,27Z"/><path class="cls-9" d="M24,37a17.9,17.9,0,0,1-10.5-3.4A5.98,5.98,0,0,0,13,36v2.226a17.918,17.918,0,0,0,22,0V36a5.98,5.98,0,0,0-.5-2.4A17.9,17.9,0,0,1,24,37Z"/><path class="cls-10" d="M24,5A19,19,0,1,0,43,24,19.021,19.021,0,0,0,24,5ZM14,37.717V36a5.006,5.006,0,0,1,5-5h1a4,4,0,0,0,8,0h1a5.006,5.006,0,0,1,5,5v1.717a16.871,16.871,0,0,1-20,0Zm4.9-22.669a5.135,5.135,0,0,0,.706,1.8,4.178,4.178,0,0,0-1.186,1.544l-.068-.134a2.615,2.615,0,0,1-.193-2.2A2.8,2.8,0,0,1,18.9,15.048ZM20.866,13h5.389A3.64,3.64,0,0,1,29.3,14.648a4.036,4.036,0,0,1,.415,3.77l-.06.152A3.953,3.953,0,0,0,26,16H22a3.761,3.761,0,0,0-.5.044A3.877,3.877,0,0,1,20.866,13Zm-1.841,8a1,1,0,0,0,1-.923A2.13,2.13,0,0,1,22,18h4a2.13,2.13,0,0,1,1.978,2.077,1,1,0,0,0,1,.923H29a1,1,0,1,1-.021,2,1,1,0,0,0-1,.924A4.22,4.22,0,0,1,24,28a4.22,4.22,0,0,1-3.982-4.076A1.019,1.019,0,0,0,19,23a1,1,0,1,1,.025-2ZM22,29.622a5.48,5.48,0,0,0,4,0V31a2,2,0,0,1-4,0Zm14,6.407V36a7.008,7.008,0,0,0-7-7H28v-.687a6.556,6.556,0,0,0,1.868-3.441A2.985,2.985,0,0,0,31.23,20.01l.339-.849a6.04,6.04,0,0,0-.615-5.634A5.612,5.612,0,0,0,26.255,11H20.081a1,1,0,0,0-.941.661,6.3,6.3,0,0,0-.244.984A5.236,5.236,0,0,0,16.3,15.321a4.588,4.588,0,0,0,.261,3.831l.349.7a2.993,2.993,0,0,0,1.217,5.019A6.563,6.563,0,0,0,20,28.313V29H19a7.008,7.008,0,0,0-7,7v.029a17,17,0,1,1,24,0Z"/><path class="cls-10" d="M24,3a1,1,0,0,0,1-1V1a1,1,0,0,0-2,0V2A1,1,0,0,0,24,3Z"/><path class="cls-10" d="M24,45a1,1,0,0,0-1,1v1a1,1,0,0,0,2,0V46A1,1,0,0,0,24,45Z"/><path class="cls-10" d="M2,23H1a1,1,0,0,0,0,2H2a1,1,0,0,0,0-2Z"/><path class="cls-10" d="M47,23H46a1,1,0,0,0,0,2h1a1,1,0,0,0,0-2Z"/><path class="cls-10" d="M7.737,9.151A1,1,0,0,0,9.151,7.737l-.708-.708A1,1,0,0,0,7.029,8.443Z"/><path class="cls-10" d="M40.263,38.849a1,1,0,0,0-1.414,1.414l.708.708a1,1,0,0,0,1.414-1.414Z"/><path class="cls-10" d="M7.736,38.849l-.707.708a1,1,0,0,0,1.415,1.414l.707-.708a1,1,0,1,0-1.415-1.414Z"/><path class="cls-10" d="M39.556,9.444a1,1,0,0,0,.708-.293l.707-.708a1,1,0,0,0-1.415-1.414l-.707.708a1,1,0,0,0,.707,1.707Z"/></svg>