<?xml version="1.0" encoding="UTF-8"?>
<!DOCTYPE svg PUBLIC "-//W3C//DTD SVG 1.1//EN" "http://www.w3.org/Graphics/SVG/1.1/DTD/svg11.dtd">
<!-- Creator: CorelDRAW -->
<svg xmlns="http://www.w3.org/2000/svg" xml:space="preserve" width="512px" height="512px" version="1.1" style="shape-rendering:geometricPrecision; text-rendering:geometricPrecision; image-rendering:optimizeQuality; fill-rule:evenodd; clip-rule:evenodd"
viewBox="0 0 512 512"
 xmlns:xlink="http://www.w3.org/1999/xlink">
 <defs>
  <style type="text/css">
   <![CDATA[
    .fil1 {fill:#00CCFF}
    .fil0 {fill:#1B74B9}
    .fil2 {fill:white}
   ]]>
  </style>
 </defs>
 <g id="Layer_x0020_1">
  <metadata id="CorelCorpID_0Corel-Layer"/>
  <path class="fil0" d="M177 338l-169 0c-5,0 -8,-3 -8,-8l0 -28c0,-38 29,-69 66,-72l0 -22c-5,-8 -9,-18 -11,-31 -21,-12 -20,-74 -1,-89 13,-10 36,-19 57,-21 17,-2 23,8 35,12 13,5 31,6 34,26 2,16 7,65 -14,73 -2,10 -5,19 -9,27l0 25c9,1 16,4 24,8 -3,-23 -1,-52 14,-64 14,-11 38,-20 62,-23 20,-3 26,9 38,13 14,5 33,7 36,27 1,8 3,28 2,46 7,-4 16,-6 25,-7l0 -22c-5,-8 -9,-18 -11,-30 -20,-11 -22,-73 -1,-90 13,-10 35,-19 56,-21 17,-2 24,7 36,12 13,5 31,6 33,26 3,19 7,63 -13,73 -2,11 -5,20 -9,27l0 24c35,5 63,36 63,73l0 28c0,5 -3,8 -7,8l-171 0c25,13 41,39 41,69l0 31c0,4 -2,7 -7,7l-224 0c-4,0 -7,-3 -7,-7l0 -31c0,-30 16,-56 40,-69zm125 5l-39 41c-3,3 -8,3 -11,0l-39 -41c-35,1 -62,30 -62,64l0 24 28 0 0 -27c0,-10 15,-10 15,0l0 27 124 0 0 -27c0,-10 15,-10 15,0l0 27 28 0 0 -24c0,-33 -26,-61 -59,-64zm-10 -10l0 -11c-21,18 -47,19 -68,1l0 10 34 36 34 -36zm15 -10l24 0 0 -23c0,-10 15,-10 15,0l0 23 112 0 0 -23c0,-10 15,-10 15,0l0 23 24 0 0 -21c0,-30 -23,-56 -52,-58l-37 38c-3,3 -7,3 -11,0l-35 -38c-12,1 -24,6 -34,14 -3,3 -3,9 -11,12 -2,13 -6,23 -10,32l0 21zm-98 -17c-6,-10 -10,-21 -13,-35 -3,-2 -6,-6 -9,-12 -10,-9 -21,-14 -34,-15l-36 38c-3,3 -8,3 -11,0l-36 -38c-31,2 -55,27 -55,59l0 21 24 0 0 -24c0,-10 15,-10 15,0l0 24 113 0 0 -24c0,-10 15,-10 15,0l0 24 27 0 0 -18zm47 15c20,0 42,-18 47,-56 -1,-4 -2,-22 -9,-32 -7,-11 -43,-15 -60,-12 -14,2 -23,7 -24,43 3,25 17,57 46,57zm-8 -115c20,0 48,4 58,19 5,8 7,17 9,25 4,-12 4,-36 1,-57 -2,-11 -21,-11 -38,-22 -7,-4 -12,-7 -20,-6 -21,3 -43,11 -54,20 -11,9 -13,41 -7,60 4,-33 22,-39 51,-39zm196 -33c0,-5 -2,-21 -8,-30 -6,-10 -38,-14 -55,-11 -17,3 -23,23 -20,39 5,35 24,51 42,51 24,0 38,-26 41,-49zm-51 -56c19,0 46,4 55,18 4,6 7,14 9,21 2,-10 2,-29 0,-49 -2,-11 -20,-10 -35,-20 -6,-4 -10,-6 -18,-5 -19,2 -39,9 -49,18 -8,6 -11,28 -7,48 0,1 0,3 0,3 5,-26 21,-34 45,-34zm9 120c-10,0 -20,-3 -29,-11l0 8 30 32 31 -32 0 -9c-10,8 -21,12 -32,12zm-250 -66c1,-7 -3,-21 -7,-27 -7,-10 -38,-14 -55,-11 -12,2 -20,6 -20,40 0,55 74,75 82,-2zm-50 -54c19,0 45,4 55,18 4,6 6,14 7,21 3,-12 3,-32 1,-49 -1,-9 -15,-11 -25,-15 -10,-3 -17,-12 -28,-10 -18,2 -38,9 -49,18 -8,6 -11,29 -8,49 1,1 1,2 1,3 5,-28 22,-35 46,-35zm-21 109l0 8 31 33 30 -33 0 -9c-18,16 -42,17 -61,1z"/>
  <path class="fil1" d="M346 300l0 23 112 0 0 -23c0,-10 15,-10 15,0l0 23 24 0 0 -21c0,-30 -23,-56 -52,-58l-37 38c-3,3 -7,3 -11,0l-35 -38c-12,1 -24,6 -34,14 -3,3 -3,9 -11,12 -2,13 -6,23 -10,32l0 21 24 0 0 -23c0,-10 15,-10 15,0z"/>
  <path class="fil1" d="M373 234l30 32 31 -32 0 -9c-10,8 -21,12 -32,12 -10,0 -20,-3 -29,-11l0 8z"/>
  <path class="fil2" d="M361 171c5,35 24,51 42,51 24,0 38,-26 41,-49 0,-5 -2,-21 -8,-30 -6,-10 -38,-14 -55,-11 -17,3 -23,23 -20,39z"/>
  <path class="fil1" d="M393 117c19,0 46,4 55,18 4,6 7,14 9,21 2,-10 2,-29 0,-49 -2,-11 -20,-10 -35,-20 -6,-4 -10,-6 -18,-5 -19,2 -39,9 -49,18 -8,6 -11,28 -7,48 0,1 0,3 0,3 5,-26 21,-34 45,-34z"/>
  <path class="fil2" d="M316 193c-2,-11 -21,-11 -38,-22 -7,-4 -12,-7 -20,-6 -21,3 -43,11 -54,20 -11,9 -13,41 -7,60 4,-33 22,-39 51,-39 20,0 48,4 58,19 5,8 7,17 9,25 4,-12 4,-36 1,-57z"/>
  <path class="fil2" d="M294 233c-7,-11 -43,-15 -60,-12 -14,2 -23,7 -24,43 3,25 17,57 46,57 20,0 42,-18 47,-56 -1,-4 -2,-22 -9,-32z"/>
  <path class="fil2" d="M292 322c-21,18 -47,19 -68,1l0 10 34 36 34 -36 0 -11z"/>
  <path class="fil1" d="M252 384l-39 -41c-35,1 -62,30 -62,64l0 24 28 0 0 -27c0,-10 15,-10 15,0l0 27 124 0 0 -27c0,-10 15,-10 15,0l0 27 28 0 0 -24c0,-33 -26,-61 -59,-64l-39 41c-3,3 -8,3 -11,0z"/>
  <path class="fil1" d="M54 324l113 0 0 -24c0,-10 15,-10 15,0l0 24 27 0 0 -18c-6,-10 -10,-21 -13,-35 -3,-2 -6,-6 -9,-12 -10,-9 -21,-14 -34,-15l-36 38c-3,3 -8,3 -11,0l-36 -38c-31,2 -55,27 -55,59l0 21 24 0 0 -24c0,-10 15,-10 15,0l0 24z"/>
  <path class="fil1" d="M81 234l31 33 30 -33 0 -9c-18,16 -42,17 -61,1l0 8z"/>
  <path class="fil2" d="M70 173c0,55 74,75 82,-2 1,-7 -3,-21 -7,-27 -7,-10 -38,-14 -55,-11 -12,2 -20,6 -20,40z"/>
  <path class="fil1" d="M102 117c19,0 45,4 55,18 4,6 6,14 7,21 3,-12 3,-32 1,-49 -1,-9 -15,-11 -25,-15 -10,-3 -17,-12 -28,-10 -18,2 -38,9 -49,18 -8,6 -11,29 -8,49 1,1 1,2 1,3 5,-28 22,-35 46,-35z"/>
 </g>
</svg>
