<?xml version="1.0" encoding="UTF-8" standalone="no"?> <svg xmlns="http://www.w3.org/2000/svg" viewBox="0 0 32 32"><defs><style>.cls-1{fill:#eaeff0;}.cls-2{fill:#009ae0;}</style></defs><title>House</title><g id="House"><path class="cls-1" d="M26.538,10.553l-10-6.4a1,1,0,0,0-1.078,0l-10,6.4A1,1,0,0,0,5,11.4V25a3,3,0,0,0,3,3h4a1,1,0,0,0,1-1V19a1,1,0,0,1,1-1h4a1,1,0,0,1,1,1v8a1,1,0,0,0,1,1h4a3,3,0,0,0,3-3V11.4A1,1,0,0,0,26.538,10.553Z"/><path class="cls-2" d="M26.872,14.716a1.981,1.981,0,0,1-1.105-.337L16,7.868,6.233,14.379a2,2,0,0,1-2.773-.555l-.737-1.105a2,2,0,0,1,.549-2.771l11.255-7.5a2.652,2.652,0,0,1,2.948,0l11.248,7.5a2,2,0,0,1,.554,2.774l-.737,1.105a1.983,1.983,0,0,1-1.271.852A2.056,2.056,0,0,1,26.872,14.716Z"/></g></svg>